# xmcd
#
# Track frame offsets: 
#        150
#        20426
#        41745
#        61013
#        89033
#        105947
#        123189
#        139326
#        156122
#
# Disc length: 2387 seconds
#
# Revision: 0
# Processed by: cddbd v1.5.2PL0 Copyright (c) Steve Scherf et al.
# Submitted via: ExactAudioCopy v1.0b4
#
DISCID=6f095109
DTITLE=Magic Slim - Highway Is My Home (LP)
DYEAR=1978
DGENRE=Blues
TTITLE0=Highway Is My Home
TTITLE1=Living In My Neighborhood
TTITLE2=I Love You Baby
TTITLE3=Country Girl
TTITLE4=Man Or Mouse
TTITLE5=Help Me
TTITLE6=I'm Mad
TTITLE7=Tell Me Baby
TTITLE8=The Sky Is Crying
EXTD=
EXTT0=
EXTT1=
EXTT2=
EXTT3=
EXTT4=
EXTT5=
EXTT6=
EXTT7=
EXTT8=
PLAYORDER=
